<svg width="1040" height="1040" xmlns="http://www.w3.org/2000/svg" fill="none">
 <defs>
  <linearGradient y2="0.54515" x2="0" y1="0.50113" x1="0.67196" id="paint0_linear_543_59">
   <stop stop-color="#13BA91"/>
   <stop stop-color="#0CA6DB" offset="1"/>
  </linearGradient>
  <linearGradient y2="0.62189" x2="1.05733" y1="0.59932" x1="0.24309" id="paint1_linear_543_59">
   <stop stop-color="#13B998"/>
   <stop stop-color="#0EAACF" offset="1"/>
  </linearGradient>
 </defs>
 <g>
  <title>Layer 1</title>
  <path id="svg_1" fill="url(#paint0_linear_543_59)" d="m346.778,749.96808c-41.03,-41.025 -70.267,-85.612 -83.693,-123.501c-7.14,1.177 -18.741,2.458 -38.13,2.531c-39.263,-2.502 -68.883,-20.828 -85.813,-56.79c-31.21,-66.328 16.194,-140.253 90.701,-140.473c94.97,-0.28 189.94,0.839 284.907,1.339c66.74,0.353 112.82,64.356 92.22,128.227c-1.68,5.211 -3.67,10.304 -5.05,14.161c43.52,-0.015 86.86,-0.045 131.26,-0.059c-0.19,0.5 0.66,-0.957 0.96,-2.532c25.66,-136.338 -78.63,-264.682 -217.87,-266.463c-96.649,-1.237 -193.341,-0.957 -290.004,-0.103c-121.367,1.089 -218.574,97.02 -222.166,217.813c-3.548,119.218 88.021,221.979 208.121,229.339c45.034,2.753 90.391,0.294 137.162,-0.957c-0.868,-0.854 -1.737,-1.678 -2.605,-2.547l0,0.015z"/>
  <path id="svg_2" fill="url(#paint1_linear_543_59)" d="m691.3,313.35508c41.03,41.024 70.27,85.612 83.7,123.501c7.14,-1.177 18.74,-2.458 38.12,-2.532c39.27,2.503 68.89,20.829 85.82,56.79c31.21,66.329 -16.2,140.253 -90.7,140.474c-94.97,0.28 -189.94,-0.839 -284.91,-1.339c-66.736,-0.354 -112.816,-64.357 -92.22,-128.227c1.678,-5.211 3.666,-10.304 5.05,-14.161c-43.518,0.015 -86.859,0.044 -131.259,0.059c0.191,-0.5 -0.663,0.957 -0.957,2.532c-25.66,136.337 78.629,264.682 217.866,266.463c96.65,1.237 193.34,0.957 290,0.103c121.37,-1.089 218.58,-97.02 222.17,-217.813c3.55,-119.218 -88.02,-221.979 -208.12,-229.339c-45.03,-2.753 -90.39,-0.294 -137.16,0.957c0.87,0.854 1.73,1.678 2.6,2.546l0,-0.014z"/>
 </g>
</svg>