<svg width="2000" height="2000" viewBox="0 0 2000 2000" fill="none" xmlns="http://www.w3.org/2000/svg">
<path d="M834.778 927.397C793.748 886.372 764.511 841.785 751.085 803.896C743.945 805.073 732.344 806.354 712.955 806.427C673.692 803.925 644.072 785.599 627.142 749.637C595.932 683.309 643.336 609.384 717.843 609.164C812.813 608.884 907.783 610.003 1002.75 610.503C1069.49 610.856 1115.57 674.859 1094.97 738.73C1093.29 743.941 1091.3 749.034 1089.92 752.891C1133.44 752.876 1176.78 752.846 1221.18 752.832C1220.99 753.332 1221.84 751.875 1222.14 750.3C1247.8 613.962 1143.51 485.618 1004.27 483.837C907.621 482.6 810.929 482.88 714.266 483.734C592.899 484.823 495.692 580.754 492.1 701.547C488.552 820.765 580.121 923.526 700.221 930.886C745.255 933.639 790.612 931.18 837.383 929.929C836.515 929.075 835.646 928.251 834.778 927.382V927.397Z" fill="url(#paint0_linear_543_59)"/>
<path d="M1179.3 490.784C1220.33 531.808 1249.57 576.396 1263 614.285C1270.14 613.108 1281.74 611.827 1301.12 611.753C1340.39 614.256 1370.01 632.582 1386.94 668.543C1418.15 734.872 1370.74 808.796 1296.24 809.017C1201.27 809.297 1106.3 808.178 1011.33 807.678C944.594 807.324 898.514 743.321 919.11 679.451C920.788 674.24 922.776 669.147 924.16 665.29C880.642 665.305 837.301 665.334 792.901 665.349C793.092 664.849 792.238 666.306 791.944 667.881C766.284 804.218 870.573 932.563 1009.81 934.344C1106.46 935.581 1203.15 935.301 1299.81 934.447C1421.18 933.358 1518.39 837.427 1521.98 716.634C1525.53 597.416 1433.96 494.655 1313.86 487.295C1268.83 484.542 1223.47 487.001 1176.7 488.252C1177.57 489.106 1178.43 489.93 1179.3 490.798V490.784Z" fill="url(#paint1_linear_543_59)"/>
<path d="M288 1085.18H451.315V1279.6H407.51V1127.11H332.068V1279.6H288V1085.18Z" fill="#00A1D2"/>
<path d="M491.496 1085.18H577.902C591.826 1085.18 603.99 1087.99 614.396 1093.66C624.801 1099.3 632.83 1107.4 638.519 1117.95C644.19 1128.51 647.034 1140.81 647.034 1154.9C647.034 1168.98 644.19 1181.29 638.519 1191.84C632.849 1202.39 624.801 1210.49 614.396 1216.14C603.99 1221.78 591.826 1224.61 577.902 1224.61H533.791V1279.6H491.496V1085.18ZM575.843 1184.89C584.789 1184.89 591.882 1182.21 597.122 1176.83C602.362 1171.47 604.982 1164.24 604.982 1155.16C604.982 1146.08 602.362 1138.87 597.122 1133.49C591.882 1128.13 584.789 1125.43 575.843 1125.43H533.548V1184.87H575.843V1184.89Z" fill="#00A1D2"/>
<path d="M707.62 1276.05C692.817 1267.65 681.403 1255.78 673.361 1240.43C665.319 1225.09 661.289 1207.25 661.289 1186.92C661.289 1166.59 665.319 1148.77 673.361 1133.41C681.403 1118.06 692.836 1106.21 707.62 1097.78C722.423 1089.38 739.58 1085.18 759.148 1085.18C778.716 1085.18 795.874 1089.38 810.677 1097.78C825.48 1106.21 836.893 1118.08 844.935 1133.41C852.977 1148.75 857.008 1166.59 857.008 1186.92C857.008 1207.25 852.977 1225.09 844.935 1240.43C836.893 1255.76 825.462 1267.63 810.677 1276.05C795.874 1284.46 778.698 1288.68 759.148 1288.68C739.599 1288.68 722.423 1284.47 707.62 1276.05ZM710.991 1219.1C715.568 1228.33 722.027 1235.49 730.333 1240.58C738.638 1245.66 748.244 1248.19 759.148 1248.19C770.053 1248.19 779.696 1245.64 788.096 1240.58C796.496 1235.49 802.974 1228.33 807.569 1219.1C812.146 1209.87 814.444 1199.15 814.444 1186.94C814.444 1174.73 812.146 1164.03 807.569 1154.78C802.974 1145.55 796.496 1138.39 788.096 1133.3C779.696 1128.21 770.053 1125.67 759.148 1125.67C748.244 1125.67 738.638 1128.21 730.333 1133.3C722.027 1138.39 715.587 1145.55 710.991 1154.78C706.396 1164.01 704.117 1174.73 704.117 1186.94C704.117 1199.15 706.415 1209.85 710.991 1219.1Z" fill="#00A1D2"/>
<path d="M886.82 1085.18H1011.25V1124.9H929.242V1279.6H886.82V1085.18Z" fill="#00A1D2"/>
<path d="M1038.47 1085.18H1124.87C1138.8 1085.18 1150.96 1087.99 1161.37 1093.66C1171.77 1099.3 1179.8 1107.4 1185.49 1117.95C1191.16 1128.51 1194.01 1140.81 1194.01 1154.9C1194.01 1168.98 1191.16 1181.29 1185.49 1191.84C1179.82 1202.39 1171.77 1210.49 1161.37 1216.14C1150.96 1221.78 1138.8 1224.61 1124.87 1224.61H1080.76V1279.6H1038.47V1085.18ZM1122.82 1184.89C1131.76 1184.89 1138.85 1182.21 1144.09 1176.83C1149.33 1171.47 1151.95 1164.24 1151.95 1155.16C1151.95 1146.08 1149.33 1138.87 1144.09 1133.49C1138.85 1128.13 1131.76 1125.43 1122.82 1125.43H1080.52V1184.87H1122.82V1184.89Z" fill="#00A1D2"/>
<path d="M1425.98 1275.92C1411.08 1267.4 1399.6 1255.44 1391.5 1240.06C1383.41 1224.67 1379.36 1206.97 1379.36 1186.96C1379.36 1166.95 1383.49 1149.2 1391.77 1133.71C1400.03 1118.23 1411.57 1106.27 1426.38 1097.84C1441.18 1089.41 1458.07 1085.18 1477.06 1085.18C1504.04 1085.18 1527.2 1095.29 1546.54 1115.49L1520.15 1143.57C1508.48 1131.7 1494.47 1125.77 1478.1 1125.77C1467.12 1125.77 1457.42 1128.32 1448.97 1133.4C1440.52 1138.51 1434 1145.69 1429.37 1154.95C1424.75 1164.21 1422.45 1174.88 1422.45 1186.92C1422.45 1198.96 1424.77 1209.63 1429.37 1218.89C1433.98 1228.17 1440.52 1235.35 1448.97 1240.43C1457.42 1245.54 1467.12 1248.09 1478.1 1248.09C1486.8 1248.09 1495.16 1246.42 1503.17 1243.08C1511.19 1239.73 1518.14 1234.92 1524.08 1228.62L1549.15 1258.37C1529.48 1278.57 1505.69 1288.68 1477.83 1288.68C1458.16 1288.68 1440.88 1284.41 1425.98 1275.88V1275.92Z" fill="#00A1D2"/>
<path d="M1604.49 1275.92C1589.71 1267.4 1578.31 1255.44 1570.28 1240.06C1562.25 1224.67 1558.23 1206.97 1558.23 1186.96C1558.23 1166.95 1562.33 1149.2 1570.55 1133.71C1578.75 1118.23 1590.2 1106.27 1604.89 1097.84C1619.58 1089.41 1636.34 1085.18 1655.18 1085.18C1681.96 1085.18 1704.95 1095.29 1724.13 1115.49L1697.95 1143.57C1686.36 1131.7 1672.47 1125.77 1656.22 1125.77C1645.33 1125.77 1635.7 1128.32 1627.31 1133.4C1618.92 1138.51 1612.45 1145.69 1607.86 1154.95C1603.27 1164.21 1601 1174.88 1601 1186.92C1601 1198.96 1603.29 1209.63 1607.86 1218.89C1612.43 1228.17 1618.92 1235.35 1627.31 1240.43C1635.7 1245.54 1645.33 1248.09 1656.22 1248.09C1664.85 1248.09 1673.14 1246.42 1681.1 1243.08C1689.05 1239.73 1695.96 1234.92 1701.84 1228.62L1726.73 1258.37C1707.2 1278.57 1683.6 1288.68 1655.95 1288.68C1636.43 1288.68 1619.28 1284.41 1604.49 1275.88V1275.92Z" fill="#00A1D2"/>
<path d="M1324.84 1162.59H1228.17V1199.16H1324.84V1162.59Z" fill="#00A1D2"/>
<path d="M1361.96 1085.28H1228.17V1123.25H1361.96V1085.28Z" fill="#00A1D2"/>
<path d="M1365.93 1241.01H1228.17V1279.24H1365.93V1241.01Z" fill="#00A1D2"/>
<defs>
<linearGradient id="paint0_linear_543_59" x1="985.242" y1="708.077" x2="492" y2="727.847" gradientUnits="userSpaceOnUse">
<stop stop-color="#13BA91"/>
<stop offset="1" stop-color="#0CA6DB"/>
</linearGradient>
<linearGradient id="paint1_linear_543_59" x1="966.486" y1="755.221" x2="1564.16" y2="765.359" gradientUnits="userSpaceOnUse">
<stop stop-color="#13B998"/>
<stop offset="1" stop-color="#0EAACF"/>
</linearGradient>
</defs>
</svg>
